<?xml version="1.0" standalone="no"?>
<!DOCTYPE svg PUBLIC "-//W3C//DTD SVG 20010904//EN"
 "http://www.w3.org/TR/2001/REC-SVG-20010904/DTD/svg10.dtd">
<svg version="1.0" xmlns="http://www.w3.org/2000/svg"
 width="910.000000pt" height="607.000000pt" viewBox="0 0 910.000000 607.000000"
 preserveAspectRatio="xMidYMid meet">

<g transform="translate(0.000000,607.000000) scale(0.100000,-0.100000)"
fill="#000000" stroke="none">
<path d="M3420 4711 c0 -4 12 -18 26 -32 36 -32 120 -161 151 -229 28 -63 52
-158 54 -210 0 -34 1 -33 21 20 29 81 36 217 13 276 -34 89 -108 147 -223 173
-23 5 -42 6 -42 2z"/>
<path d="M5685 4713 c-100 -20 -180 -69 -220 -137 -44 -75 -44 -219 1 -341 4
-11 -25 10 -64 48 -158 151 -300 162 -438 35 -24 -22 -44 -44 -44 -48 0 -5 17
-3 38 3 20 6 96 11 167 11 136 0 214 -14 298 -56 22 -11 42 -17 45 -13 3 3 14
44 23 91 26 128 97 266 187 366 37 41 38 46 7 41z"/>
<path d="M3068 4676 c-51 -14 -63 -21 -121 -75 -39 -36 -83 -99 -75 -106 2 -3
22 0 44 6 67 19 228 6 314 -26 120 -44 261 -130 358 -218 23 -22 42 -37 42
-33 0 20 -152 228 -213 293 -81 85 -132 123 -197 146 -67 23 -100 26 -152 13z"/>
<path d="M5964 4679 c-112 -21 -260 -147 -380 -324 -89 -132 -97 -149 -43
-100 107 98 245 181 376 224 74 25 107 31 180 31 48 0 104 -4 122 -10 19 -5
37 -8 39 -5 7 7 -47 85 -82 117 -63 59 -134 81 -212 67z"/>
<path d="M3905 4396 c-22 -7 -56 -21 -75 -31 -37 -19 -160 -132 -160 -147 0
-5 17 0 38 10 83 42 162 56 297 56 72 0 147 -5 168 -11 20 -6 37 -8 37 -3 0
14 -87 88 -128 109 -52 26 -127 34 -177 17z"/>
<path d="M3065 4286 c-68 -17 -106 -38 -143 -80 -50 -58 -74 -171 -56 -264 l6
-31 38 48 c83 104 193 171 346 210 93 24 269 45 320 39 63 -7 35 9 -60 35
-196 55 -346 69 -451 43z"/>
<path d="M5790 4285 c-101 -19 -270 -66 -270 -74 0 -4 14 -6 30 -3 46 7 239
-16 326 -38 150 -39 281 -121 355 -223 l28 -38 7 36 c3 20 4 67 2 103 -8 110
-56 180 -152 223 -64 28 -219 35 -326 14z"/>
<path d="M3544 4156 c-362 -182 -587 -694 -620 -1411 l-6 -150 26 -24 26 -24
-25 -25 c-19 -19 -25 -35 -25 -68 0 -36 5 -46 33 -68 l32 -26 -28 -22 c-26
-21 -28 -28 -25 -83 3 -58 4 -60 42 -81 l39 -22 -36 -23 c-29 -19 -37 -31 -37
-54 l0 -30 -285 3 c-166 1 -285 -1 -285 -6 0 -14 175 -153 270 -214 411 -266
949 -425 1615 -478 182 -14 626 -4 820 19 693 83 1220 280 1610 602 l90 74
-105 3 c-58 1 -189 1 -293 0 l-187 -3 0 32 c0 25 -7 36 -37 54 l-36 23 41 20
42 20 0 62 c0 56 -3 64 -27 82 l-27 20 32 27 c27 23 32 33 32 71 0 34 -6 51
-24 69 l-24 24 25 23 26 23 -6 155 c-24 622 -210 1109 -510 1336 -52 40 -172
104 -193 104 -3 0 28 -33 69 -74 296 -293 440 -695 441 -1236 0 -268 -35 -562
-95 -792 l-10 -38 -289 0 -290 0 0 300 0 300 276 0 c168 0 274 4 272 9 -1 6
-298 289 -658 630 l-654 620 -76 -72 c-164 -155 -460 -435 -540 -512 -47 -45
-222 -211 -390 -370 -168 -159 -306 -292 -308 -297 -2 -4 120 -8 272 -8 l276
0 0 -300 0 -300 -280 0 c-154 0 -283 0 -287 -1 -19 -2 -71 257 -98 486 -22
189 -22 491 0 660 51 389 190 691 423 918 44 42 74 77 67 77 -7 0 -43 -16 -81
-34z m1212 -581 c93 -88 216 -205 274 -261 131 -125 435 -413 513 -484 31 -29
57 -56 57 -59 0 -3 -54 -4 -119 -1 l-120 5 -158 149 c-87 83 -241 229 -343
326 -102 97 -210 199 -240 227 l-55 51 -170 -161 c-94 -88 -246 -233 -340
-322 -93 -88 -198 -187 -231 -218 l-61 -58 -116 3 -116 3 280 265 c154 146
299 283 322 304 23 22 129 122 234 223 138 131 197 182 207 176 7 -4 89 -80
182 -168z m139 -512 l325 -308 0 -59 c0 -54 -1 -57 -17 -45 -10 8 -157 146
-327 307 l-309 293 -36 -34 c-20 -18 -165 -156 -323 -305 -157 -150 -289 -272
-293 -272 -3 0 -5 26 -3 59 l3 58 323 307 c178 168 326 306 328 306 3 0 151
-138 329 -307z m-385 -218 c-41 -356 -168 -592 -371 -688 -72 -34 -154 -57
-204 -57 -24 0 -25 2 -25 75 0 47 4 75 11 75 22 0 146 54 194 85 82 52 152
132 195 220 21 44 41 96 45 115 7 33 5 32 -40 -30 -87 -117 -184 -203 -286
-254 -50 -25 -97 -46 -105 -46 -11 0 -14 16 -14 68 l0 68 303 287 302 286 3
-52 c2 -29 -2 -97 -8 -152z m265 54 c55 -53 178 -169 273 -259 l172 -163 0
-69 c0 -46 -4 -68 -12 -68 -7 0 -54 20 -104 45 -75 36 -108 60 -171 123 -43
43 -96 104 -117 135 -22 31 -41 55 -44 53 -9 -10 42 -139 77 -193 70 -108 201
-205 329 -243 l42 -13 0 -74 c0 -84 0 -84 -102 -62 -226 49 -384 228 -458 521
-28 114 -50 275 -50 370 l0 52 32 -30 c18 -16 78 -72 133 -125z m-1761 -1023
c342 -166 735 -272 1196 -322 297 -33 723 -23 1035 22 292 43 640 147 837 251
l53 28 -710 3 c-782 2 -756 4 -865 -60 l-55 -33 540 -5 540 -5 -165 -32 c-701
-138 -1393 -92 -2053 137 -221 76 -370 69 1448 69 l1630 1 -49 -31 c-944 -593
-2718 -593 -3662 0 l-49 31 109 0 109 0 111 -54z"/>
<path d="M3726 4160 c188 -99 318 -264 348 -441 12 -73 12 -74 29 -49 78 120
95 246 44 333 -51 86 -165 144 -342 172 -135 22 -147 20 -79 -15z"/>
<path d="M5314 4174 c-208 -35 -341 -127 -359 -248 -11 -68 28 -195 79 -261
15 -19 15 -19 16 11 0 44 37 160 67 214 60 104 167 204 287 269 57 30 58 31
25 30 -19 -1 -71 -7 -115 -15z"/>
<path d="M3650 4099 c0 -177 -53 -379 -129 -496 -37 -56 -110 -131 -161 -164
l-25 -17 49 -7 c26 -4 77 -5 112 -2 232 18 297 263 182 687 -11 41 -22 77 -24
79 -2 2 -4 -34 -4 -80z"/>
<path d="M5453 4095 c-54 -199 -70 -404 -37 -502 47 -143 160 -204 330 -178
l49 7 -25 17 c-171 112 -269 326 -288 628 l-7 108 -22 -80z"/>
</g>
</svg>
